<?xml version="1.0" encoding="UTF-8"?>
<!DOCTYPE svg PUBLIC "-//W3C//DTD SVG 1.1//EN" "http://www.w3.org/Graphics/SVG/1.1/DTD/svg11.dtd">
<!-- Creator: CorelDRAW 2019 (64-Bit) -->
<svg xmlns="http://www.w3.org/2000/svg" xml:space="preserve" width="34px" height="24px" version="1.1" style="shape-rendering:geometricPrecision; text-rendering:geometricPrecision; image-rendering:optimizeQuality; fill-rule:evenodd; clip-rule:evenodd"
viewBox="0 0 4.17 2.92"
 xmlns:xlink="http://www.w3.org/1999/xlink"
 xmlns:xodm="http://www.corel.com/coreldraw/odm/2003">
 <defs>
  <style type="text/css">
   <![CDATA[
    .fil0 {fill:#002469;fill-rule:nonzero}
   ]]>
  </style>
 </defs>
 <g id="Слой_x0020_1">
  <metadata id="CorelCorpID_0Corel-Layer"/>
  <path class="fil0" d="M0 2.84l0 -0.36 0.16 0c0.1,0 0.17,-0.02 0.2,-0.05 0.03,-0.02 0.04,-0.09 0.04,-0.2l0 -1.56c0,-0.11 -0.01,-0.17 -0.04,-0.2 -0.03,-0.03 -0.1,-0.04 -0.2,-0.04l-0.16 0 0 -0.36 1.56 0 0 0.36 -0.16 0c-0.11,0 -0.17,0.01 -0.2,0.04 -0.03,0.03 -0.05,0.09 -0.05,0.2l0 1.56c0,0.11 0.02,0.18 0.05,0.2 0.03,0.03 0.09,0.05 0.2,0.05l0.16 0 0 0.36 -1.56 0zm2.12 0.04l-0.31 0 0 -1.09 0.35 0c0.03,0.22 0.12,0.39 0.27,0.53 0.15,0.13 0.33,0.2 0.55,0.2 0.15,0 0.26,-0.03 0.35,-0.09 0.08,-0.06 0.12,-0.14 0.12,-0.24 0,-0.17 -0.15,-0.28 -0.47,-0.36 -0.05,-0.01 -0.09,-0.02 -0.12,-0.03 -0.27,-0.07 -0.46,-0.12 -0.57,-0.17 -0.1,-0.04 -0.19,-0.09 -0.26,-0.15 -0.09,-0.07 -0.15,-0.16 -0.2,-0.26 -0.04,-0.1 -0.07,-0.21 -0.07,-0.34 0,-0.28 0.1,-0.49 0.28,-0.65 0.19,-0.15 0.46,-0.23 0.8,-0.23 0.17,0 0.32,0.02 0.45,0.06 0.13,0.04 0.24,0.09 0.34,0.17l0.08 -0.19 0.33 0 0 1.01 -0.37 0c-0.02,-0.2 -0.1,-0.37 -0.24,-0.48 -0.14,-0.12 -0.32,-0.18 -0.54,-0.18 -0.13,0 -0.23,0.03 -0.31,0.09 -0.07,0.06 -0.11,0.14 -0.11,0.23 0,0.15 0.17,0.25 0.52,0.33 0.13,0.03 0.23,0.06 0.31,0.08 0.3,0.07 0.52,0.19 0.66,0.33 0.14,0.15 0.21,0.34 0.21,0.57 0,0.28 -0.09,0.49 -0.29,0.66 -0.2,0.16 -0.46,0.24 -0.8,0.24 -0.16,0 -0.32,-0.02 -0.47,-0.07 -0.15,-0.04 -0.28,-0.1 -0.38,-0.18l-0.11 0.21z"/>
 </g>
</svg>
